<svg width="1440" height="641" viewBox="0 0 1440 641" fill="none" xmlns="http://www.w3.org/2000/svg">
<g clip-path="url(#clip0_959_1125)">
<path d="M0 100C0 44.7715 44.7715 0 100 0H1440V541C1440 596.229 1395.23 641 1340 641H0V100Z" fill="#1E9A64"/>
<path d="M1204.18 267C1223.96 267.008 1240 283.152 1240 303.068V376.932C1239.99 396.845 1223.96 412.992 1204.18 413H1130.82C1111.04 412.996 1095.01 396.847 1095 376.932V303.068C1095 283.15 1111.04 267.004 1130.82 267H1204.18Z" fill="#31BF81"/>
<path d="M1290.18 615C1309.96 614.992 1326 598.848 1326 578.932V505.068C1325.99 485.155 1309.96 469.008 1290.18 469H1216.82C1197.04 469.004 1181.01 485.153 1181 505.068V578.932C1181 598.85 1197.04 614.996 1216.82 615H1290.18Z" fill="#31BF81"/>
<path d="M1459.18 615C1478.96 614.992 1495 598.848 1495 578.932V505.068C1494.99 485.155 1478.96 469.008 1459.18 469H1385.82C1366.04 469.004 1350.01 485.153 1350 505.068V578.932C1350 598.85 1366.04 614.996 1385.82 615H1459.18Z" fill="#31BF81"/>
<path d="M1459.18 423C1478.96 422.992 1495 406.848 1495 386.932V313.068C1494.99 293.155 1478.96 277.008 1459.18 277H1385.82C1366.04 277.004 1350.01 293.153 1350 313.068V386.932C1350 406.85 1366.04 422.996 1385.82 423H1459.18Z" fill="#31BF81"/>
<path d="M1079.18 47C1098.96 46.9924 1115 30.8478 1115 10.9319V-62.932C1114.99 -82.8448 1098.96 -98.9924 1079.18 -99H1005.82C986.042 -98.9959 970.008 -82.847 970 -62.932V10.9319C970.004 30.85 986.039 46.9959 1005.82 47H1079.18Z" fill="#31BF81"/>
<path d="M1245.18 120C1264.96 119.992 1281 103.848 1281 83.9319V10.068C1280.99 -9.84477 1264.96 -25.9924 1245.18 -26H1171.82C1152.04 -25.9959 1136.01 -9.84698 1136 10.068V83.9319C1136 103.85 1152.04 119.996 1171.82 120H1245.18Z" fill="#31BF81"/>
<path d="M40.1791 725C59.9576 724.992 75.996 708.848 76 688.932V615.068C75.9924 595.155 59.9554 579.008 40.1791 579H-33.179C-52.9583 579.004 -68.9924 595.153 -69 615.068V688.932C-68.996 708.85 -52.9605 724.996 -33.179 725H40.1791Z" fill="#31BF81"/>
<path d="M209.179 721C228.958 720.992 244.996 704.848 245 684.932V611.068C244.992 591.155 228.955 575.008 209.179 575H135.821C116.042 575.004 100.008 591.153 100 611.068V684.932C100.004 704.85 116.039 720.996 135.821 721H209.179Z" fill="#31BF81"/>
<path d="M40.1791 553C59.9576 552.992 75.996 536.848 76 516.932V443.068C75.9924 423.155 59.9554 407.008 40.1791 407H-33.179C-52.9583 407.004 -68.9924 423.153 -69 443.068V516.932C-68.996 536.85 -52.9605 552.996 -33.179 553H40.1791Z" fill="#31BF81"/>
<path d="M564.262 -23.732C603.917 -24.5249 638.396 5.08735 641.273 42.4086C644.15 79.7301 614.336 110.628 574.681 111.421C564.714 111.62 555.074 109.898 546.18 106.616C525.887 111.504 507.042 113.287 496.97 113.488C508.042 109.835 516.66 102.397 523.273 93.3948C508.845 81.3797 499.138 64.3352 497.669 45.2804C494.792 7.95897 524.606 -22.939 564.262 -23.732Z" fill="#31BF81"/>
</g>
<defs>
<clipPath id="clip0_959_1125">
<path d="M0 100C0 44.7715 44.7715 0 100 0H1440V541C1440 596.229 1395.23 641 1340 641H0V100Z" fill="white"/>
</clipPath>
</defs>
</svg>
